<svg width="42" height="34" viewBox="0 0 42 34" fill="none" xmlns="http://www.w3.org/2000/svg">
<circle cx="21" cy="17" r="17" fill="white"/>
<path d="M19.0254 25.1367H18.4512C18.0319 25.1367 17.7129 25.0638 17.4941 24.918C17.2389 24.7357 16.8835 24.0612 16.4277 22.8945L11.0137 9.33203H9.61914V8.59375H17.002V9.33203H14.8418L19.5176 20.8984L23.6465 9.33203H21.459V8.59375H26.1074V9.33203H24.7402L19.0254 25.1367Z" fill="#F091A0"/>
<path d="M29.8359 29H18V28.4844L26.3906 15.5469L22.5469 15.5703C21.7656 15.5859 21.1328 16.0859 20.6484 17.0703L19.6641 19.1797H18.9609L19.125 14.9375H29.7422V15.4531L21.5391 28.3672H26.1797C27.2578 28.3203 28.0234 27.6641 28.4766 26.3984L29.1562 24.1484H29.8828L29.8359 29Z" fill="#F091A0"/>
</svg>
